<svg width="265" height="277" viewBox="0 0 265 277" fill="none" xmlns="http://www.w3.org/2000/svg">
<g clip-path="url(#clip0_7817_112498)">
<path d="M147.042 287.887C176.836 287.887 200.988 283.775 200.988 278.703C200.988 273.631 176.836 269.52 147.042 269.52C117.248 269.52 93.0957 273.631 93.0957 278.703C93.0957 283.775 117.248 287.887 147.042 287.887Z" fill="#D4D7F4"/>
<path d="M139.106 167.768L138.962 165.714C139.09 165.714 151.606 165.25 151.358 159.951C151.342 159.464 151.198 158.984 150.95 158.552C150.694 158.121 150.335 157.745 149.903 157.465C149.552 158.049 149.08 158.56 148.505 158.968C147.937 159.368 147.282 159.655 146.579 159.815C142.127 160.615 136.644 159.448 135.302 157.417C135.062 157.074 134.942 156.666 134.958 156.259C134.974 155.851 135.142 155.467 135.414 155.164C136.9 153.413 144.125 153.069 148.521 154.54L148.824 154.644C149.248 153.293 149.352 151.863 149.112 150.448C149.048 150.048 148.952 149.649 148.816 149.265C148.345 149.257 147.841 149.305 147.314 149.297C142.79 149.265 133.783 147.77 133.639 145.093C133.552 143.486 135.589 142.855 140.888 142.743C145.667 142.479 148.601 144.493 150.127 147.051C150.575 146.987 151.006 146.891 151.438 146.763C153.46 146.14 153.436 145.197 153.428 144.829C153.428 144.254 153.292 143.686 153.036 143.151C152.78 142.623 152.405 142.144 151.941 141.752C147.881 138.211 137.476 138.771 137.372 138.779L137.148 136.725C137.619 136.733 148.633 136.141 153.436 140.249C154.131 140.833 154.69 141.544 155.074 142.335C155.458 143.127 155.658 143.982 155.666 144.845C155.689 146.18 155.034 148.234 151.038 148.985C151.158 149.377 151.254 149.769 151.318 150.168C151.614 151.99 151.462 153.837 150.862 155.563C151.661 156.019 152.333 156.658 152.812 157.417C153.292 158.177 153.556 159.024 153.596 159.895C153.891 167.32 139.713 167.76 139.114 167.768H139.106ZM137.172 156.49C137.795 157.306 141.967 158.576 146.075 157.833C146.85 157.641 147.498 157.17 147.897 156.53C143.765 155.084 138.059 155.811 137.18 156.474V156.498L137.172 156.49ZM136.333 145.277C138.187 146.204 143.422 147.371 147.721 147.291C146.595 145.86 144.589 144.645 141.048 144.837C139.458 144.821 137.883 144.957 136.341 145.253V145.277H136.333Z" fill="#E41517"/>
<path d="M204.241 132.014L85.9587 151.484C77.7349 152.835 70.598 147.744 69.0395 140.071L58.2583 92.2269C56.7078 84.554 62.3342 76.7772 70.558 75.3864L186.003 45.6939C189.951 45.0465 194.035 45.8857 197.352 48.0277C200.669 50.1697 202.962 53.4387 203.713 57.1233L216.908 116.021C218.467 123.726 212.473 130.679 204.249 132.03L204.241 132.014Z" fill="#E41517"/>
<path d="M170.89 113.792C183.757 111.418 191.997 99.7569 189.288 87.744C186.579 75.7311 173.951 67.9223 161.084 70.2961C148.217 72.6699 139.977 84.3312 142.686 96.3441C145.396 108.357 158.023 116.166 170.89 113.792Z" fill="white"/>
<path d="M56.2604 107.164L61.8229 131.853C58.3144 132.501 54.654 131.821 51.657 129.967C48.652 128.113 46.5501 125.227 45.8148 121.95C45.0795 118.673 45.7588 115.277 47.7249 112.503C49.6829 109.73 52.7519 107.811 56.2604 107.164Z" fill="#E41517"/>
<path d="M53.0156 119.449L36.7598 122.446L37.4311 125.436L53.6869 122.438L53.0156 119.449Z" fill="#E41517"/>
<path d="M36.408 127.338C38.6058 126.931 40.0124 124.941 39.5489 122.887C39.0854 120.832 36.9275 119.498 34.7297 119.905C32.5319 120.313 31.1253 122.303 31.5888 124.357C32.0524 126.411 34.2102 127.746 36.408 127.338Z" fill="#E41517"/>
<path d="M210.427 62.4319L215.989 87.1291C217.763 86.8414 219.458 86.2339 220.96 85.3307C222.471 84.4276 223.765 83.2447 224.772 81.8619C225.779 80.4792 226.475 78.9207 226.818 77.2742C227.162 75.6277 227.146 73.9333 226.778 72.2868C226.403 70.6403 225.684 69.0737 224.661 67.683C223.63 66.2923 222.319 65.1014 220.792 64.1823C219.266 63.2631 217.564 62.6397 215.789 62.344C214.007 62.0482 212.185 62.0802 210.435 62.4479L210.427 62.4319Z" fill="#E41517"/>
<path d="M219.41 75.5646L235.666 72.5674L234.995 69.5781L218.739 72.5754L219.41 75.5646Z" fill="#E41517"/>
<path d="M237.432 73.9556C239.63 73.548 241.036 71.5578 240.573 69.5037C240.109 67.4496 237.951 66.1148 235.754 66.5225C233.556 66.9301 232.149 68.9203 232.613 70.9744C233.076 73.0285 235.234 74.3632 237.432 73.9556Z" fill="#E41517"/>
<path d="M88.5164 48.3727L89.3795 52.6248C90.2267 56.8209 94.5663 59.6263 99.0659 58.883L150.942 50.3469C155.442 49.6035 158.399 45.6072 157.552 41.4031L156.688 37.151C155.841 32.9549 151.502 30.1495 147.002 30.8928L95.1258 39.4289C90.6263 40.1722 87.6692 44.1686 88.5164 48.3727Z" fill="#E41517"/>
<path d="M94.63 172.625L88.2924 186.037C85.8548 185.581 83.3373 185.621 80.8677 186.197C77.2953 187.028 73.9946 188.922 71.3412 191.656C69.4471 193.606 67.9446 195.948 66.9216 198.529C65.8986 201.111 65.3792 203.876 65.4031 206.65L76.1285 206.202C76.1285 205.011 76.3442 203.836 76.7838 202.733C77.2234 201.63 77.8707 200.631 78.6859 199.8C80.3243 198.114 82.5061 197.17 84.7519 197.178C86.9976 197.178 89.1235 198.146 90.666 199.84C91.5851 200.815 92.2724 202.014 92.664 203.341C93.0556 204.668 93.1515 206.082 92.9357 207.473C92.7199 208.864 92.1925 210.19 91.4092 211.333C90.626 212.484 89.603 213.427 88.4282 214.083L93.4712 224.066C96.7639 222.147 99.4812 219.254 101.287 215.745C103.094 212.237 103.917 208.264 103.645 204.324C103.397 200.455 102.127 196.771 99.9767 193.702C99.5292 193.062 99.0416 192.463 98.5222 191.887L105.06 178.06C106.003 176.062 105.275 173.672 103.437 172.713L99.681 170.763C97.8428 169.812 95.5811 170.651 94.638 172.649L94.63 172.625Z" fill="#E41517"/>
<path d="M102.974 24.9216L102.183 19.9502C117.455 16.7372 130.379 40.8989 130.922 41.922L126.223 44.4636C122.986 38.3173 112.516 22.9075 102.974 24.9137V24.9216Z" fill="#E41517"/>
<path d="M110.83 16.9451C108.96 9.69582 101.272 5.67553 93.6473 7.96142C86.0229 10.2473 81.3635 17.9762 83.2337 25.2255C85.1038 32.4748 92.7921 36.4951 100.417 34.2092C108.033 31.9233 112.7 24.1944 110.83 16.9451Z" fill="#FFC200"/>
<path d="M69.2952 89.8393C70.8456 89.5516 71.8366 88.1529 71.509 86.7062C71.1813 85.2595 69.6628 84.3244 68.1123 84.6041C66.5619 84.8919 65.5709 86.2906 65.8985 87.7372C66.2262 89.1839 67.7447 90.127 69.2952 89.8393Z" fill="#8E1017"/>
<path d="M80.7878 146.338C82.3383 146.05 83.3293 144.651 83.0016 143.205C82.674 141.758 81.1555 140.815 79.605 141.102C78.0546 141.39 77.0635 142.789 77.3912 144.236C77.7189 145.682 79.2374 146.625 80.7878 146.338Z" fill="#8E1017"/>
<path d="M192.037 58.4275C193.588 58.1397 194.579 56.741 194.251 55.2944C193.923 53.8477 192.405 52.9046 190.855 53.1923C189.304 53.48 188.313 54.8787 188.641 56.3254C188.968 57.7721 190.487 58.7152 192.037 58.4275Z" fill="#8E1017"/>
<path d="M206.974 124.717C208.525 124.429 209.516 123.03 209.188 121.583C208.86 120.137 207.342 119.194 205.792 119.481C204.241 119.769 203.25 121.168 203.578 122.614C203.905 124.061 205.424 125.004 206.974 124.717Z" fill="#8E1017"/>
<path d="M190.511 159.039L100.792 162.052C97.3157 162.172 94.7023 164.922 94.9661 168.207L100.281 235.089C100.545 238.374 103.574 240.94 107.058 240.82L196.777 237.806C200.253 237.687 202.867 234.937 202.603 231.652L197.28 164.77C197.016 161.493 193.988 158.919 190.511 159.039Z" fill="#E41517"/>
<path d="M176.269 173.002L117.176 174.984C114.882 175.064 113.172 176.871 113.339 179.037L116.84 223.092C117.016 225.25 119.006 226.936 121.3 226.865L180.393 224.882C182.686 224.802 184.397 222.988 184.229 220.83L180.728 176.775C180.553 174.617 178.563 172.93 176.269 173.002Z" fill="#8E1017"/>
<path d="M136.748 262.328L163.378 262.832C163.961 262.84 164.528 263.071 164.952 263.471C165.376 263.871 165.615 264.406 165.631 264.958L165.719 269.154C165.751 270.808 165.088 272.383 163.865 273.534C162.642 274.685 160.972 275.308 159.214 275.276L141.431 274.94C139.673 274.909 137.971 274.221 136.7 273.022C135.429 271.831 134.702 270.225 134.67 268.57L134.582 264.374C134.574 263.823 134.79 263.295 135.198 262.92C135.605 262.536 136.165 262.328 136.748 262.336V262.328Z" fill="#E41517"/>
<path d="M166.719 245.168L132.696 244.521C129.843 244.465 127.573 246.599 127.629 249.284L127.725 254.168C127.781 256.853 130.139 259.067 132.984 259.123L167.006 259.771C169.859 259.826 172.129 257.692 172.073 255.007L171.977 250.123C171.921 247.438 169.564 245.216 166.711 245.168H166.719Z" fill="#E41517"/>
<path d="M153.516 171.625L156.744 162.594C156.744 162.594 152.716 159.117 147.969 159.029C143.222 158.941 139.306 162.282 139.306 162.282L142.902 171.45C144.397 170.363 146.251 169.795 148.169 169.827C150.087 169.859 151.973 170.49 153.516 171.625Z" fill="#131313"/>
<path d="M158.295 197.778L157.272 192.207L138.467 202.565L137.508 209.231L158.295 197.778Z" fill="#232323"/>
<path d="M157.144 191.493L156.129 185.922L139.537 195.049L138.586 201.723L157.144 191.493Z" fill="#232323"/>
<path d="M154.85 178.938L153.835 173.367L141.679 180.065L140.736 186.691L154.85 178.938Z" fill="#232323"/>
<path d="M160.717 211.035L135.246 225.094L134.854 227.828C134.782 228.339 134.854 228.867 135.054 229.354C135.206 229.73 135.438 230.074 135.726 230.369L161.636 216.039L160.725 211.043L160.717 211.035Z" fill="#232323"/>
<path d="M153.516 171.617C151.981 170.482 150.103 169.851 148.185 169.811C146.267 169.771 144.413 170.338 142.918 171.417L142.766 172.472L146.922 170.17C147.258 170.122 147.602 170.09 147.937 170.082L148.521 170.066L142.646 173.319L141.799 179.218L153.699 172.664L153.508 171.617H153.516Z" fill="#232323"/>
<path d="M156.001 185.211L154.978 179.641L140.617 187.537L139.658 194.203L156.001 185.211Z" fill="#232323"/>
<path d="M163.81 228.004L145.348 238.211L147.698 240.113C148.233 240.544 148.913 240.792 149.608 240.808C150.303 240.824 150.967 240.6 151.486 240.185L162.827 231.137C163.242 230.809 163.554 230.378 163.738 229.898C163.922 229.419 163.97 228.891 163.874 228.38L163.802 228.004H163.81Z" fill="#232323"/>
<path d="M163.682 227.303L162.787 222.371L140.809 234.528L144.781 237.749L163.682 227.303Z" fill="#232323"/>
<path d="M160.589 210.348L159.566 204.777L136.317 217.606L135.366 224.255L160.589 210.348Z" fill="#232323"/>
<path d="M159.438 204.067L158.423 198.496L137.388 210.077L136.437 216.751L159.438 204.067Z" fill="#232323"/>
<path d="M162.651 221.666L161.756 216.742L136.269 230.841L140.241 234.062L162.651 221.666Z" fill="#232323"/>
<g opacity="0.8">
<path opacity="0.8" d="M144.836 238.122L163.873 227.74L163.921 226.973L144.389 237.627L144.836 238.122Z" fill="#EAAA56"/>
<path opacity="0.8" d="M140.632 233.944L141.056 234.432L162.914 222.267L162.97 221.508L140.632 233.952V233.944Z" fill="#EAAA56"/>
<path opacity="0.8" d="M136.005 229.861L136.388 230.373L161.476 217.009L161.563 216.25L136.005 229.869V229.861Z" fill="#EAAA56"/>
<path opacity="0.8" d="M136.381 223.451C136.245 223.707 136.149 223.979 136.085 224.259L160.205 211.255L160.373 210.527L136.389 223.443L136.381 223.451Z" fill="#EAAA56"/>
<path opacity="0.8" d="M159.581 203.652L136.716 216.369L136.285 217.304L159.454 204.412L159.581 203.66V203.652Z" fill="#EAAA56"/>
<path opacity="0.8" d="M158.327 198.466L158.463 197.707L137.931 209.168L137.5 210.096L158.335 198.474L158.327 198.466Z" fill="#EAAA56"/>
<path opacity="0.8" d="M156.88 192.716L157.032 191.965L138.938 201.876L138.49 202.787L156.888 192.708L156.88 192.716Z" fill="#EAAA56"/>
<path opacity="0.8" d="M155.817 186.13L155.937 185.371L139.937 194.555L139.513 195.482L155.817 186.122V186.13Z" fill="#EAAA56"/>
<path opacity="0.8" d="M154.778 179.962L154.938 179.211L140.976 186.636L140.521 187.547L154.778 179.962Z" fill="#EAAA56"/>
<path opacity="0.8" d="M142.247 178.706L141.767 179.618L153.619 173.423L153.683 173.168L153.483 172.84L142.247 178.706Z" fill="#EAAA56"/>
<path opacity="0.8" d="M142.926 172.528L142.542 173.519L149.36 169.738L148.776 169.754C148.433 169.77 148.097 169.802 147.761 169.842L142.934 172.52L142.926 172.528Z" fill="#EAAA56"/>
<path opacity="0.8" d="M145.771 170.69H145.883C146.163 170.65 146.451 170.618 146.738 170.602L140.521 164.855L140.84 166.134L145.771 170.69Z" fill="#EAAA56"/>
<path opacity="0.8" d="M153.651 170.489L154.091 169.841L142.83 161.113C142.511 161.201 142.207 161.289 141.911 161.385L153.651 170.489Z" fill="#EAAA56"/>
<path opacity="0.8" d="M155.45 165.471L155.881 164.824L150.295 160.476C149.751 160.348 149.192 160.244 148.625 160.164L155.442 165.471H155.45Z" fill="#EAAA56"/>
</g>
<path d="M155.769 104.784C161.709 103.605 165.512 97.8224 164.262 91.8633C163.012 85.9041 157.183 82.0322 151.237 83.2114C145.297 84.3907 141.487 90.1733 142.738 96.1324C143.988 102.092 149.817 105.963 155.763 104.791L155.769 104.784Z" fill="#1E1E1E"/>
<path d="M150.494 94.5548C152.961 94.5548 154.961 92.4062 154.961 89.7559C154.961 87.1056 152.961 84.957 150.494 84.957C148.027 84.957 146.027 87.1056 146.027 89.7559C146.027 92.4062 148.027 94.5548 150.494 94.5548Z" fill="white"/>
<path d="M131.385 98.2152C128.692 86.2742 116.145 78.5134 103.357 80.8712C90.57 83.229 82.3782 94.8263 85.0715 106.759C85.9746 110.772 87.9966 114.312 90.7698 117.158C90.5221 118.189 90.4341 119.276 90.554 120.395C91.1055 125.726 95.8767 129.594 101.207 129.035C104.3 128.715 106.898 126.965 108.424 124.519C109.967 124.519 111.533 124.391 113.108 124.095C125.895 121.737 134.087 110.14 131.393 98.2072L131.385 98.2152Z" fill="white"/>
<path d="M122.769 110.784C128.709 109.605 132.512 103.822 131.262 97.8633C130.012 91.9041 124.183 88.0322 118.237 89.2114C112.297 90.3907 108.487 96.1733 109.738 102.132C110.988 108.092 116.817 111.963 122.763 110.791L122.769 110.784Z" fill="#1E1E1E"/>
<path d="M117.326 100.555C119.793 100.555 121.793 98.4062 121.793 95.7559C121.793 93.1056 119.793 90.957 117.326 90.957C114.859 90.957 112.859 93.1056 112.859 95.7559C112.859 98.4062 114.859 100.555 117.326 100.555Z" fill="white"/>
<path d="M107.01 172.68L98.2667 191.79C98.2667 191.79 108.465 212.723 93.4795 224.04L96.4845 225.399C96.4845 225.399 113.332 215.88 102.103 191.846L108.64 178.019L107.018 172.672L107.01 172.68Z" fill="#8E1017"/>
<path d="M172.414 126.117L208.922 143.73C210.424 144.458 211.713 145.493 212.699 146.77C213.684 148.047 214.335 149.525 214.596 151.073C214.854 152.629 214.722 154.223 214.195 155.72C213.675 157.22 212.784 158.588 211.594 159.712L200.8 169.905C199.608 171.036 198.16 171.885 196.552 172.403C194.946 172.913 193.234 173.072 191.564 172.854C189.884 172.642 188.284 172.062 186.901 171.168C185.509 170.271 184.367 169.085 183.568 167.7L164.105 133.974C163.482 132.891 163.256 131.65 163.445 130.435C163.634 129.22 164.238 128.09 165.165 127.211C166.091 126.331 167.301 125.758 168.603 125.556C169.912 125.357 171.239 125.558 172.414 126.117Z" fill="#E41517"/>
<path d="M200.797 169.91C200.797 169.91 196.019 175.666 186.891 171.163L184.926 169.528L182.941 166.623L176.602 155.632L164.098 133.961C164.098 133.961 161.915 130.177 164.366 128.13C166.816 126.083 165.158 127.198 165.158 127.198C165.158 127.198 166.422 133.302 168.243 136.048C169.862 138.493 190.131 175.83 200.801 169.894L200.797 169.91Z" fill="#8E1017"/>
<path d="M196 87.0019L144.5 70.0019C149.333 65.6686 162.5 58.2019 176.5 63.0019C190.5 67.8019 195.333 81.0019 196 87.0019Z" fill="#E41517"/>
<path d="M114.574 76.621L72.736 111.13C71.6465 104.73 72.3485 89.6103 83.873 80.3245C95.3975 71.0387 109.142 73.9864 114.574 76.621Z" fill="#E41517"/>
<ellipse cx="142.815" cy="122.073" rx="5.5" ry="7.5" transform="rotate(-10.2187 142.815 122.073)" fill="#1E1E1E"/>
<path d="M202.445 27.3376L198.999 7.99973" stroke="#FFC200" stroke-width="5" stroke-linecap="round"/>
<path d="M219.501 29.4564L229.5 12.0023" stroke="#FFC200" stroke-width="5" stroke-linecap="round"/>
<path d="M225.921 43.5259L245.503 40.5029" stroke="#FFC200" stroke-width="5" stroke-linecap="round"/>
</g>
<defs>
<clipPath id="clip0_7817_112498">
<rect width="253" height="289" fill="white" transform="translate(10.5 1)"/>
</clipPath>
</defs>
</svg>
