<svg width="212" height="157" viewBox="0 0 212 157" fill="none" xmlns="http://www.w3.org/2000/svg">
<g clip-path="url(#clip0_1_23542)">
<path d="M213.533 70.9614L123.808 76.9775L211.017 55.1903L205.599 38.6521L122.139 71.884L198.292 24.4251L187.99 10.3584L118.963 67.5479L176.606 -0.935793L162.428 -11.1569L114.592 64.3966L148.093 -18.4015L131.423 -23.7766L109.463 62.7457L115.532 -26.2676H98.0058L104.07 62.7505L82.1095 -23.7718L65.44 -18.3966L98.9357 64.4063L51.1001 -11.152L36.9216 -0.930939L94.5652 67.5528L25.5427 10.3632L15.2405 24.43L91.3938 71.8888L7.93345 38.657L2.5156 55.1952L89.7249 76.9824L0 70.9614V88.3494L89.7249 82.3333L2.5205 104.12L7.93835 120.659L91.3987 87.4268L15.2405 134.886L25.5427 148.952L94.5701 91.7629L36.9265 160.247L51.105 170.468L98.9406 94.9142L65.4449 177.717L82.1144 183.092L104.075 96.57L98.0107 185.588H115.537L109.473 96.57L131.433 183.092L148.103 177.717L114.607 94.9142L162.442 170.468L176.621 160.247L118.977 91.7629L188.005 148.952L198.307 134.886L122.154 87.4268L205.614 120.659L211.032 104.12L123.823 82.3333L213.547 88.3494V70.9614H213.533Z" fill="url(#paint0_radial_1_23542)"/>
<path d="M95.2365 104.347L95.367 103.297C95.4315 103.31 101.792 104.312 102.191 101.617C102.231 101.369 102.206 101.114 102.124 100.872C102.037 100.629 101.893 100.404 101.703 100.22C101.468 100.48 101.179 100.691 100.849 100.84C100.523 100.985 100.164 101.065 99.793 101.076C97.4679 101.04 94.8169 99.9102 94.3401 98.7545C94.2531 98.5576 94.2329 98.3403 94.2813 98.1364C94.3296 97.9326 94.4522 97.7558 94.6194 97.6296C95.5424 96.8942 99.2218 97.4344 101.294 98.6096L101.437 98.6919C101.785 98.053 101.978 97.3422 101.997 96.6056C102.005 96.3979 101.996 96.187 101.965 95.9802C101.728 95.9296 101.469 95.9041 101.204 95.848C98.9244 95.3852 94.5275 93.7426 94.7196 92.3789C94.834 91.5606 95.9247 91.4436 98.6094 91.9104C101.047 92.2494 102.328 93.5541 102.845 94.9938C103.077 95.0058 103.305 95.0001 103.535 94.9783C104.617 94.8637 104.698 94.386 104.73 94.2C104.787 93.9099 104.775 93.6105 104.699 93.3154C104.622 93.0243 104.48 92.7455 104.284 92.5023C102.586 90.317 97.2801 89.5715 97.2269 89.5652L97.317 88.5079C97.5541 88.5585 103.169 89.3479 105.187 91.8926C105.48 92.2553 105.692 92.6691 105.807 93.1057C105.923 93.5424 105.939 93.9931 105.858 94.429C105.738 95.104 105.204 96.0746 103.114 96.0586C103.135 96.2678 103.145 96.4747 103.138 96.6824C103.107 97.63 102.848 98.5455 102.375 99.3564C102.733 99.6649 103.009 100.053 103.175 100.483C103.342 100.914 103.392 101.367 103.326 101.81C102.741 105.581 95.5438 104.402 95.2406 104.347L95.2365 104.347ZM95.3754 98.4719C95.6093 98.9443 97.5887 99.9967 99.7349 100.028C100.145 100.008 100.518 99.8338 100.783 99.551C98.8413 98.414 95.8901 98.2171 95.381 98.4646L95.3786 98.4767L95.3754 98.4719ZM96.0604 92.7375C96.9043 93.3879 99.4303 94.4929 101.608 94.8772C101.18 94.0449 100.288 93.2345 98.483 92.9816C97.6821 92.8165 96.8743 92.7295 96.0668 92.7262L96.0644 92.7383L96.0604 92.7375Z" fill="#E41517"/>
<path d="M131.829 96.7523L71.447 84.3709C67.2478 83.5115 64.7563 79.7528 65.4209 75.7876L69.0373 50.8572C69.7019 46.8921 73.8323 44.1949 78.0386 45.039L138.937 51.9914C140.949 52.4061 142.759 53.5551 143.958 55.1952C145.157 56.8312 145.655 58.8194 145.34 60.7238L140.852 91.3985C140.184 95.3798 136.028 97.6117 131.829 96.7523Z" fill="#E41517"/>
<path d="M119.164 81.8839C125.779 83.1074 131.88 79.0268 132.786 72.7666C133.695 66.5071 129.064 60.4433 122.449 59.2199C115.83 57.9957 109.732 62.077 108.827 68.3373C107.917 74.5967 112.549 80.6605 119.164 81.8839Z" fill="white"/>
<path d="M65.3302 57.6533C63.5276 57.3215 61.6988 57.6788 60.2487 58.6457C58.9666 59.5033 58.0706 60.7836 57.7121 62.2486L54.4111 61.636C54.3069 60.7582 53.5995 59.9881 52.6454 59.8139C51.5138 59.6051 50.4729 60.3007 50.3175 61.3704C50.1622 62.4401 50.9512 63.4771 52.0828 63.686C52.7901 63.816 53.4621 63.592 53.906 63.1434L57.5386 63.8167C57.5601 65.2012 58.0354 66.5784 58.9249 67.7438C60.0242 69.1845 61.6586 70.182 63.4603 70.5179L65.3253 57.6565L65.3302 57.6533Z" fill="#E41517"/>
<path d="M160.767 73.4434C160.922 72.3737 160.133 71.3367 159.002 71.1278C158.048 70.9497 157.164 71.4249 156.816 72.2184L153.688 71.6398C153.718 70.9723 153.645 70.2972 153.461 69.6378C153.223 68.7797 152.808 67.9707 152.246 67.25C151.684 66.5293 150.978 65.9186 150.179 65.4484C149.379 64.9782 148.499 64.6596 147.586 64.5143L145.72 77.3796C146.625 77.5693 147.551 77.5874 148.441 77.4269C149.331 77.2664 150.169 76.9411 150.908 76.4624C151.643 75.983 152.267 75.3606 152.732 74.6359C153.022 74.1823 153.243 73.6944 153.401 73.1858L156.856 73.8243C157.147 74.4124 157.724 74.8682 158.435 74.9991C159.567 75.208 160.608 74.5123 160.763 73.4426L160.767 73.4434Z" fill="#E41517"/>
<path d="M91.6254 35.3839L91.2577 37.5794C90.8947 39.7507 92.4603 41.8894 94.7591 42.3602L121.241 47.7899C123.536 48.26 125.695 46.8835 126.058 44.7122L126.426 42.5168C126.789 40.3455 125.223 38.2067 122.924 37.7359L96.4419 32.3062C94.1471 31.8362 91.9884 33.2126 91.6254 35.3839Z" fill="#E41517"/>
<path d="M64.3582 111.111L57.8282 115.043C56.915 114.154 55.8256 113.453 54.6092 112.999C52.8469 112.339 50.8927 112.209 48.9804 112.622C47.6141 112.92 46.3026 113.491 45.1302 114.306C43.9579 115.12 42.9496 116.154 42.1692 117.347L46.885 120.208C47.2183 119.696 47.6527 119.257 48.1568 118.907C48.6595 118.561 49.2191 118.316 49.8066 118.194C50.9896 117.938 52.1914 118.153 53.1486 118.796C54.107 119.436 54.7431 120.453 54.9214 121.618C55.0393 122.295 54.9896 123.007 54.7777 123.685C54.5696 124.365 54.2046 124.996 53.7166 125.53C53.2287 126.063 52.6282 126.481 51.9646 126.751C51.3011 127.021 50.5967 127.13 49.9073 127.08L49.2224 132.788C51.1766 132.905 53.1631 132.44 54.9362 131.451C56.7093 130.463 58.1896 128.994 59.197 127.231C60.1887 125.502 60.6956 123.566 60.649 121.639C60.6416 121.237 60.6017 120.842 60.5436 120.45L67.2767 116.392C68.2506 115.806 68.6194 114.573 68.1025 113.64L67.0506 111.738C66.5337 110.805 65.3282 110.524 64.3543 111.11L64.3582 111.111Z" fill="#E41517"/>
<path d="M111.195 42.0409L108.465 41.7199C108.528 41.1256 110.105 27.1465 118.007 25.7736L118.577 28.2941C113.64 29.1475 111.573 38.4926 111.195 42.0409Z" fill="#E41517"/>
<path d="M151.915 106.105L131.221 108.598C130.372 108.699 129.569 108.994 128.877 109.448C128.184 109.907 127.625 110.513 127.238 111.227C126.852 111.938 126.653 112.736 126.656 113.552C126.66 114.369 126.864 115.182 127.259 115.925L130.819 122.67C131.208 123.415 131.774 124.074 132.469 124.587C133.164 125.103 133.973 125.462 134.822 125.637C135.675 125.812 136.546 125.794 137.373 125.592C138.196 125.389 138.95 125.002 139.571 124.462L154.647 111.304C155.128 110.879 155.448 110.319 155.557 109.696C155.667 109.073 155.559 108.425 155.255 107.842C154.95 107.26 154.458 106.779 153.858 106.469C153.258 106.155 152.574 106.029 151.91 106.109L151.915 106.105Z" fill="#E41517"/>
<path d="M74.7745 51.7368C75.5706 51.8842 76.3036 51.3918 76.4135 50.6395C76.5234 49.8872 75.9676 49.1552 75.1676 49.007C74.3715 48.8596 73.6385 49.3519 73.5286 50.1042C73.4187 50.8566 73.9745 51.5886 74.7705 51.736L74.7745 51.7368Z" fill="#8E1017"/>
<path d="M69.9108 80.9438C70.7068 81.0912 71.4399 80.5989 71.5497 79.8465C71.6596 79.0942 71.1038 78.3622 70.3038 78.214C69.5078 78.0666 68.7747 78.5589 68.6648 79.3113C68.555 80.0636 69.1107 80.7956 69.9108 80.9438Z" fill="#8E1017"/>
<path d="M139.493 59.2172C140.289 59.3647 141.022 58.8723 141.132 58.12C141.242 57.3677 140.686 56.6357 139.886 56.4875C139.09 56.34 138.357 56.8324 138.247 57.5847C138.137 58.337 138.693 59.069 139.489 59.2165L139.493 59.2172Z" fill="#8E1017"/>
<path d="M134.49 93.7497C135.286 93.8971 136.019 93.4047 136.129 92.6524C136.239 91.9001 135.683 91.1681 134.887 91.0207C134.091 90.8732 133.358 91.3656 133.248 92.1179C133.138 92.8702 133.694 93.6022 134.494 93.7504L134.49 93.7497Z" fill="#8E1017"/>
<path d="M122.041 105.023L76.4712 97.6818C74.7051 97.399 73.1146 98.5266 72.923 100.208L68.9935 134.442C68.8018 136.124 70.0766 137.716 71.8468 138L117.417 145.341C119.183 145.624 120.773 144.496 120.965 142.814L124.89 108.579C125.081 106.902 123.807 105.306 122.041 105.023Z" fill="#E41517"/>
<path d="M113.474 110.654L83.4597 105.818C82.2944 105.631 81.2528 106.373 81.1234 107.481L78.5349 130.031C78.4103 131.136 79.2477 132.183 80.4123 132.373L110.427 137.209C111.592 137.395 112.634 136.65 112.763 135.546L115.351 112.996C115.476 111.891 114.638 110.844 113.474 110.654Z" fill="#8E1017"/>
<path d="M84.7053 151.767L98.0932 154.65C98.3868 154.712 98.6503 154.885 98.8245 155.128C98.9987 155.371 99.0668 155.665 99.0203 155.944L98.6499 158.068C98.5025 158.905 98.0121 159.633 97.2813 160.093C96.5505 160.552 95.646 160.701 94.7619 160.512L85.8219 158.586C84.9378 158.397 84.1467 157.882 83.624 157.152C83.1005 156.426 82.8923 155.545 83.0397 154.708L83.4101 152.584C83.4606 152.305 83.6217 152.061 83.8645 151.912C84.1081 151.759 84.4109 151.709 84.7045 151.771L84.7053 151.767Z" fill="#E41517"/>
<path d="M101.524 146.082L84.4201 142.396C82.9859 142.086 81.6295 142.937 81.3923 144.296L80.9579 146.767C80.7207 148.127 81.6916 149.475 83.1218 149.785L100.226 153.471C101.66 153.781 103.017 152.929 103.254 151.57L103.688 149.099C103.925 147.74 102.955 146.387 101.52 146.081L101.524 146.082Z" fill="#E41517"/>
<path d="M109.624 80.0477C110.519 81.3984 107.128 84.6795 103.19 83.8336C99.2532 82.9836 97.5626 78.5574 98.8147 77.6604C101.056 76.3546 99.6452 81.2406 103.583 82.0866C107.524 82.9374 107.727 78.2751 109.624 80.0477Z" fill="#1E1E1E"/>
<path d="M102.126 107.72L104.648 103.486C104.648 103.486 102.959 101.336 100.573 100.823C98.1858 100.31 95.8794 101.607 95.8794 101.607L96.788 106.583C97.6496 106.183 98.6413 106.08 99.606 106.285C100.571 106.491 101.46 106.995 102.126 107.72Z" fill="#131313"/>
<path d="M101.95 121.369L101.99 118.457L91.4719 121.825L90.333 125.091L101.95 121.369Z" fill="#232323"/>
<path d="M101.994 118.09L102.029 115.181L92.7594 118.14L91.6156 121.41L101.994 118.09Z" fill="#232323"/>
<path d="M102.077 111.532L102.115 108.628L95.3203 110.8L94.1845 114.049L102.077 111.532Z" fill="#232323"/>
<path d="M101.862 128.29L87.62 132.862L87.1521 134.201C87.0652 134.452 87.0494 134.725 87.102 134.99C87.1415 135.195 87.2244 135.391 87.3404 135.568L101.831 130.903L101.865 128.295L101.862 128.29Z" fill="#232323"/>
<path d="M102.127 107.715C101.465 106.991 100.58 106.487 99.6159 106.278C98.652 106.068 97.6603 106.171 96.7996 106.568L96.6186 107.084L98.9432 106.335C99.1173 106.343 99.2938 106.361 99.464 106.39L99.76 106.44L96.4744 107.5L95.4637 110.389L102.116 108.26L102.123 107.714L102.127 107.715Z" fill="#232323"/>
<path d="M102.034 114.811L102.074 111.899L94.0423 114.461L92.9026 117.731L102.034 114.811Z" fill="#232323"/>
<path d="M101.751 137.147L91.4268 140.469L92.4243 141.66C92.6518 141.93 92.9701 142.122 93.3193 142.199C93.6686 142.275 94.0254 142.228 94.3287 142.07L100.946 138.629C101.188 138.505 101.388 138.318 101.528 138.094C101.668 137.871 101.744 137.61 101.747 137.342L101.747 137.146L101.751 137.147Z" fill="#232323"/>
<path d="M101.756 136.776L101.788 134.205L89.4965 138.159L91.1862 140.175L101.756 136.776Z" fill="#232323"/>
<path d="M101.866 127.927L101.905 125.019L88.9014 129.189L87.7632 132.451L101.866 127.927Z" fill="#232323"/>
<path d="M101.91 124.649L101.949 121.741L90.1889 125.506L89.0499 128.772L101.91 124.649Z" fill="#232323"/>
<path d="M101.792 133.839L101.824 131.264L87.5685 135.859L89.2582 137.875L101.792 133.839Z" fill="#232323"/>
<g opacity="0.8">
<path opacity="0.8" d="M91.1785 140.369L101.811 137.015L101.911 136.633L91.0017 140.075L91.1785 140.369Z" fill="#EAAA56"/>
<path opacity="0.8" d="M89.469 137.853L89.6345 138.14L101.867 134.167L101.97 133.789L89.4682 137.857L89.469 137.853Z" fill="#EAAA56"/>
<path opacity="0.8" d="M87.5374 135.338L87.6804 135.633L101.661 131.374L101.78 131L87.5366 135.342L87.5374 135.338Z" fill="#EAAA56"/>
<path opacity="0.8" d="M88.36 132.143C88.2662 132.259 88.1909 132.386 88.131 132.521L101.588 128.348L101.744 127.997L88.3648 132.14L88.36 132.143Z" fill="#EAAA56"/>
<path opacity="0.8" d="M102.024 124.456L89.2294 128.609L88.9192 129.037L101.885 124.826L102.024 124.46L102.024 124.456Z" fill="#EAAA56"/>
<path opacity="0.8" d="M101.904 121.718L102.048 121.349L90.5542 125.099L90.2447 125.524L101.907 121.723L101.904 121.718Z" fill="#EAAA56"/>
<path opacity="0.8" d="M101.741 118.679L101.892 118.315L91.782 121.524L91.466 121.939L101.746 118.675L101.741 118.679Z" fill="#EAAA56"/>
<path opacity="0.8" d="M101.851 115.254L101.987 114.883L93.0054 117.933L92.7 118.358L101.852 115.25L101.851 115.254Z" fill="#EAAA56"/>
<path opacity="0.8" d="M101.936 112.042L102.091 111.679L94.3121 114.044L93.9921 114.458L101.936 112.042Z" fill="#EAAA56"/>
<path opacity="0.8" d="M95.7371 110.174L95.405 110.586L101.998 108.634L102.056 108.512L101.987 108.327L95.7371 110.174Z" fill="#EAAA56"/>
<path opacity="0.8" d="M96.6907 107.124L96.3991 107.585L100.213 106.353L99.9169 106.303C99.7419 106.277 99.5694 106.26 99.396 106.247L96.6955 107.12L96.6907 107.124Z" fill="#EAAA56"/>
<path opacity="0.8" d="M98.3107 106.483L98.3672 106.494C98.5123 106.501 98.6606 106.513 98.8074 106.534L96.2383 103.023L96.2731 103.7L98.3107 106.483Z" fill="#EAAA56"/>
<path opacity="0.8" d="M102.303 107.16L102.589 106.877L97.7699 101.366C97.5999 101.379 97.438 101.393 97.2793 101.412L102.303 107.16Z" fill="#EAAA56"/>
<path opacity="0.8" d="M103.712 104.804L103.993 104.52L101.604 101.777C101.343 101.659 101.071 101.551 100.792 101.455L103.708 104.803L103.712 104.804Z" fill="#EAAA56"/>
</g>
<path d="M123.265 31.5735C127.338 31.2161 130.25 27.8372 129.762 24.0233C129.275 20.2094 125.578 17.4071 121.501 17.7637C117.428 18.121 114.516 21.4999 115.004 25.3138C115.491 29.1278 119.187 31.93 123.265 31.5735Z" fill="#FFC200"/>
<path d="M89.442 76.6086C96.057 77.832 102.159 73.7514 103.064 67.4912C103.973 61.2317 99.3421 55.1679 92.7271 53.9445C86.1081 52.7203 80.0105 56.8016 79.1051 63.0619C78.1957 69.3213 82.827 75.3851 89.442 76.6086Z" fill="white"/>
<path d="M95.9282 71.4668C98.9026 72.0154 101.645 70.1804 102.055 67.366C102.464 64.5517 100.382 61.8227 97.408 61.2741C94.4336 60.7255 91.687 62.5597 91.2815 65.3749C90.8719 68.1893 92.9538 70.9182 95.9323 71.4676L95.9282 71.4668Z" fill="#1E1E1E"/>
<path d="M114.374 74.3828C117.348 74.9314 120.091 73.0965 120.501 70.2821C120.91 67.4677 118.828 64.7388 115.854 64.1901C112.879 63.6415 110.133 65.4757 109.727 68.2909C109.318 71.1053 111.4 73.8342 114.378 74.3836L114.374 74.3828Z" fill="#1E1E1E"/>
<path d="M120.829 86.3257C126.518 86.9516 131.352 85.4494 131.626 82.9703C131.899 80.4913 127.508 77.9742 121.819 77.3482C116.129 76.7223 111.295 78.2245 111.022 80.7036C110.748 83.1826 115.139 85.6997 120.829 86.3257Z" fill="#E41517"/>
<path d="M85.9291 80.2819C92.0008 81.4702 97.2918 80.5522 97.747 78.2315C98.2021 75.9109 93.6489 73.0664 87.5773 71.8781C81.5056 70.6898 76.2145 71.6078 75.7594 73.9285C75.3043 76.2491 79.8574 79.0937 85.9291 80.2819Z" fill="#E41517"/>
<path d="M98.7531 66.7774C99.7553 66.9735 100.727 66.321 100.923 65.3198C101.12 64.3187 100.466 63.3481 99.4641 63.152C98.4619 62.9559 97.4902 63.6085 97.2939 64.6096C97.0975 65.6107 97.7508 66.5813 98.7531 66.7774Z" fill="white"/>
<path d="M112.388 68.5769C113.299 68.7551 114.182 68.162 114.361 67.2521C114.539 66.3422 113.946 65.46 113.035 65.2818C112.124 65.1035 111.241 65.6966 111.062 66.6065C110.884 67.5164 111.477 68.3986 112.388 68.5769Z" fill="white"/>
<path d="M174.108 37.5817L173.86 41.9731C173.823 42.5899 174.094 43.1881 174.575 43.5637L178.011 46.2625C179.227 47.2178 178.832 49.17 177.342 49.5642L173.135 50.6817C172.543 50.8394 172.066 51.2799 171.86 51.8596L170.383 55.9959C169.86 57.4613 167.901 57.6838 167.071 56.3715L164.722 52.6711C164.392 52.1517 163.827 51.8271 163.217 51.8085L158.869 51.6694C157.327 51.6184 156.515 49.8053 157.488 48.5996L160.245 45.1959C160.63 44.7183 160.763 44.0784 160.593 43.4848L159.382 39.2604C158.951 37.7626 160.405 36.4224 161.841 36.9882L165.896 38.5833C166.465 38.8059 167.107 38.7364 167.617 38.3886L171.218 35.917C172.493 35.0406 174.204 36.0236 174.117 37.5817H174.108Z" fill="#FFC374"/>
<path d="M53.6838 17.4783L63.4418 34.8344C63.8428 35.5451 64.2792 36.1764 64.7207 36.6747C65.1566 37.1737 71.7682 32.4071 71.6197 31.6911C71.4713 30.9751 54.0492 13.9559 54.0492 13.9559C53.712 13.6333 53.4034 13.4794 53.1674 13.5227C52.9314 13.566 52.7843 13.7986 52.7456 14.1948C52.7062 14.5854 52.7722 15.117 52.9442 15.7091C53.1106 16.302 53.372 16.9165 53.6838 17.4783Z" fill="#FFC374"/>
<path d="M28.1367 78.3463L31.3018 80.899C31.7454 81.2559 32.34 81.3779 32.8934 81.2197L36.8178 80.0948C38.2082 79.6972 39.4568 81.0435 38.9308 82.3764L37.4489 86.1399C37.2385 86.6685 37.3071 87.2649 37.6319 87.7348L39.9279 91.0736C40.7421 92.2574 39.8273 93.8477 38.3866 93.7664L34.3067 93.536C33.735 93.5043 33.1816 93.7528 32.8294 94.2001L30.323 97.3899C29.4356 98.5194 27.6244 98.1534 27.2539 96.7709L26.2157 92.8673C26.0693 92.3206 25.6577 91.8778 25.118 91.6836L21.2714 90.3146C19.9084 89.8312 19.7026 88.0149 20.9192 87.2423L24.3542 85.0601C24.839 84.7529 25.1363 84.2288 25.1546 83.664L25.2826 79.6294C25.3284 78.2017 27.0115 77.4427 28.1321 78.3463H28.1367Z" fill="#FFC374"/>
<path d="M179.948 91.8614L179.908 95.0355C179.903 95.48 180.114 95.9017 180.479 96.1582L183.07 97.9931C183.988 98.6428 183.76 100.062 182.687 100.392L179.652 101.333C179.224 101.464 178.893 101.8 178.756 102.222L177.809 105.253C177.472 106.325 176.051 106.547 175.406 105.629L173.575 103.036C173.318 102.672 172.896 102.455 172.45 102.461L169.272 102.501C168.148 102.512 167.498 101.236 168.171 100.335L170.071 97.7937C170.339 97.4347 170.413 96.9731 170.271 96.5457L169.255 93.5425C168.896 92.4768 169.911 91.4625 170.978 91.8272L173.985 92.8472C174.408 92.9897 174.876 92.9156 175.235 92.6535L177.78 90.7558C178.682 90.0834 179.965 90.7387 179.948 91.8614Z" fill="#FFC374"/>
<path d="M32.9629 31.6031L32.5235 34.4638C32.4608 34.8684 32.6034 35.273 32.9001 35.5523L35.0114 37.5354C35.7589 38.2363 35.3766 39.49 34.3609 39.6553L31.5021 40.1226C31.097 40.191 30.7546 40.4474 30.5834 40.8178L29.3452 43.4392C28.9058 44.3681 27.5934 44.3909 27.1255 43.4791L25.796 40.9033C25.6077 40.5443 25.2539 40.2936 24.8488 40.2423L21.9729 39.8776C20.9572 39.7465 20.5292 38.5099 21.2482 37.7805L23.291 35.7232C23.5763 35.4326 23.7018 35.0223 23.6277 34.6234L23.0856 31.7798C22.8916 30.7711 23.9415 29.9847 24.8602 30.4463L27.4508 31.7456C27.816 31.9279 28.2439 31.9222 28.6034 31.7228L31.1484 30.3323C32.0499 29.8365 33.1227 30.5887 32.9686 31.6031H32.9629Z" fill="#4583FF"/>
<path d="M167.491 136.673L161.346 126.358C161.095 125.936 160.792 125.572 160.467 125.293C160.142 125.019 153.18 129.065 153.197 129.521C153.214 129.977 166.55 139.061 166.55 139.061C166.806 139.231 167.069 139.294 167.297 139.237C167.525 139.18 167.702 139.004 167.805 138.736C167.908 138.468 167.936 138.12 167.879 137.75C167.822 137.379 167.685 136.998 167.491 136.667V136.673Z" fill="#AFEEE6" fill-opacity="0.7"/>
<path d="M152.238 16.3021L146.618 22.4815C146.386 22.7329 146.215 23.0191 146.108 23.3119C146.002 23.6047 145.968 23.8958 146.015 24.1608C146.057 24.4299 146.179 24.665 146.357 24.8503C146.543 25.0355 146.784 25.1629 147.068 25.2288L149.635 25.8098C149.919 25.8758 150.238 25.8723 150.559 25.8003C150.88 25.7283 151.204 25.5957 151.498 25.4034C151.792 25.211 152.049 24.9752 152.248 24.7004C152.452 24.4295 152.591 24.136 152.653 23.8483L154.217 16.7477C154.269 16.5207 154.24 16.3037 154.131 16.1288C154.026 15.9579 153.85 15.837 153.627 15.7898C153.408 15.7385 153.15 15.7607 152.902 15.8552C152.65 15.9457 152.42 16.1043 152.238 16.3021Z" fill="#4583FF"/>
<path d="M24.9891 134.703L32.7551 131.626C33.0747 131.501 33.3543 131.318 33.5768 131.102C33.7994 130.885 33.9534 130.64 34.0333 130.378C34.1132 130.116 34.1075 129.854 34.0276 129.609C33.942 129.364 33.7823 129.136 33.5597 128.953L31.5055 127.301C31.2773 127.118 30.9977 126.982 30.6724 126.902C30.3529 126.822 30.0048 126.805 29.6567 126.845C29.3086 126.891 28.972 126.993 28.6753 127.147C28.3785 127.301 28.1218 127.506 27.9335 127.74L23.4085 133.427C23.2658 133.609 23.1974 133.814 23.2145 134.02C23.2316 134.219 23.34 134.407 23.5169 134.55C23.6938 134.692 23.9335 134.783 24.1959 134.812C24.4584 134.84 24.738 134.8 24.9891 134.703Z" fill="#4583FF"/>
</g>
<defs>
<radialGradient id="paint0_radial_1_23542" cx="0" cy="0" r="1" gradientUnits="userSpaceOnUse" gradientTransform="translate(106.766 79.6578) scale(106.766 105.925)">
<stop stop-color="#FFCB20"/>
<stop offset="0.918269" stop-color="white" stop-opacity="0"/>
</radialGradient>
<clipPath id="clip0_1_23542">
<rect width="212" height="225" fill="white" transform="translate(0 -34)"/>
</clipPath>
</defs>
</svg>
